<?xml version="1.0" encoding="UTF-8" standalone="no"?>
<!DOCTYPE svg PUBLIC "-//W3C//DTD SVG 1.1//EN" "http://www.w3.org/Graphics/SVG/1.1/DTD/svg11.dtd">
<svg width="100%" height="100%" viewBox="0 0 66 66" version="1.1" xmlns="http://www.w3.org/2000/svg" xmlns:xlink="http://www.w3.org/1999/xlink" xml:space="preserve" xmlns:serif="http://www.serif.com/" style="fill-rule:evenodd;clip-rule:evenodd;stroke-linejoin:round;stroke-miterlimit:1.41421;">
    <g id="Layer19" transform="matrix(1.39437,0,0,1.00778,-1.85919,-0.256828)">
        <g transform="matrix(0.87863,0,0,1.26364,-1.76316,-0.675026)">
            <rect x="14.382" y="0.736" width="10.439" height="10.043" style="fill:rgb(30,30,30);"/>
        </g>
        <g transform="matrix(0.87863,0,0,1.26364,-11.3035,12.525)">
            <rect x="14.382" y="0.736" width="10.439" height="10.043" style="fill:rgb(30,30,30);"/>
        </g>
        <g transform="matrix(0.87863,0,0,1.26364,-11.3035,25.725)">
            <rect x="14.382" y="0.736" width="10.439" height="10.043" style="fill:rgb(30,30,30);"/>
        </g>
        <g transform="matrix(0.87863,0,0,1.26364,-11.3035,38.925)">
            <rect x="14.382" y="0.736" width="10.439" height="10.043" style="fill:rgb(30,30,30);"/>
        </g>
        <g transform="matrix(0.87863,0,0,1.26364,-1.76316,52.125)">
            <rect x="14.382" y="0.736" width="10.439" height="10.043" style="fill:rgb(30,30,30);"/>
        </g>
        <g transform="matrix(0.87863,0,0,1.26364,7.77718,52.125)">
            <rect x="14.382" y="0.736" width="10.439" height="10.043" style="fill:rgb(30,30,30);"/>
        </g>
        <g transform="matrix(0.87863,0,0,1.26364,17.3175,52.125)">
            <rect x="14.382" y="0.736" width="10.439" height="10.043" style="fill:rgb(30,30,30);"/>
        </g>
        <g transform="matrix(0.87863,0,0,1.26364,26.8578,38.925)">
            <rect x="14.382" y="0.736" width="10.439" height="10.043" style="fill:rgb(30,30,30);"/>
        </g>
        <g transform="matrix(0.87863,0,0,1.26364,26.8578,12.525)">
            <rect x="14.382" y="0.736" width="10.439" height="10.043" style="fill:rgb(30,30,30);"/>
        </g>
        <g transform="matrix(0.87863,0,0,1.26364,7.77718,-0.675026)">
            <rect x="14.382" y="0.736" width="10.439" height="10.043" style="fill:rgb(30,30,30);"/>
        </g>
        <g transform="matrix(0.87863,0,0,1.26364,17.3175,-0.675026)">
            <rect x="14.382" y="0.736" width="10.439" height="10.043" style="fill:rgb(30,30,30);"/>
        </g>
    </g>
</svg>
