<?xml version="1.0" encoding="UTF-8" standalone="no"?>
<!DOCTYPE svg PUBLIC "-//W3C//DTD SVG 1.1//EN" "http://www.w3.org/Graphics/SVG/1.1/DTD/svg11.dtd">
<svg width="100%" height="100%" viewBox="0 0 66 66" version="1.1" xmlns="http://www.w3.org/2000/svg" xmlns:xlink="http://www.w3.org/1999/xlink" xml:space="preserve" xmlns:serif="http://www.serif.com/" style="fill-rule:evenodd;clip-rule:evenodd;stroke-linejoin:round;stroke-miterlimit:1.41421;">
    <g transform="matrix(1.09159,0,0,1.09159,-3.02255,-1.90619)">
        <path d="M41.593,62.208L24.407,62.208L14.815,50.371L14.039,30.758L15.875,49.603L25.214,61.498L33,62.036L40.786,61.498L50.125,49.603L51.961,30.758L51.185,50.371L41.593,62.208ZM28.571,56.474L27.094,56.474L26.356,52.582L25.617,56.474L24.141,56.474L26.356,44.802L28.571,56.474ZM41.859,56.474L40.383,56.474L39.644,52.582L38.906,56.474L37.429,56.474L39.644,44.802L41.859,56.474ZM33,56.474L31.524,56.474L30.785,52.582L30.047,56.474L28.571,56.474L30.785,44.802L33,56.474ZM37.429,56.474L35.953,56.474L35.215,52.582L34.476,56.474L33,56.474L35.215,44.802L37.429,56.474ZM16.277,34.048L20.361,37.743L20.64,52.294L19.078,39.887L16.277,34.048ZM49.723,34.048L45.639,37.743L45.36,52.294L46.922,39.887L49.723,34.048ZM33,28.279L34.115,41.546L37.37,38.28L33,44.652L28.63,38.28L31.918,41.546L33,28.279ZM17.006,8.901C19.049,4.766 25.441,1.746 33,1.746C40.559,1.746 46.951,4.766 48.994,8.901L51.818,5.443L59.733,20.433L53.354,31.962L58.8,19.879L51.818,9.577L41.087,22.98L35.358,14.051L41.087,18.582L48.614,9.366C46.154,5.914 40.065,3.392 33,3.392C25.935,3.392 19.846,5.914 17.386,9.366L24.913,18.582L30.642,14.051L24.913,22.98L14.182,9.577L7.2,19.879L12.646,31.962L6.267,20.433L14.182,5.443L17.006,8.901ZM41.189,27.984C41.176,28.856 41.293,29.672 41.507,30.369C39.129,30.565 37.039,30.491 37.039,30.491C38.483,29.712 39.879,28.889 41.189,27.984ZM24.811,27.984C26.121,28.889 27.517,29.712 28.961,30.491C28.961,30.491 26.871,30.565 24.493,30.369C24.707,29.672 24.824,28.856 24.811,27.984ZM22.698,26.381C23.086,26.706 23.485,27.021 23.893,27.326C23.912,27.478 23.924,27.634 23.931,27.793C23.97,28.781 23.758,29.672 23.395,30.259C23.162,30.232 22.928,30.201 22.696,30.167C22.732,29.594 22.753,28.943 22.753,28.252C22.753,27.579 22.733,26.943 22.698,26.381ZM43.302,26.381C43.267,26.943 43.247,27.579 43.247,28.252C43.247,28.943 43.268,29.594 43.304,30.167C43.072,30.201 42.838,30.232 42.605,30.259C42.242,29.672 42.03,28.781 42.069,27.793C42.076,27.634 42.088,27.478 42.107,27.326C42.515,27.021 42.914,26.706 43.302,26.381ZM44.657,25.152C45.156,25.703 45.469,26.746 45.421,27.927C45.392,28.658 45.23,29.325 44.982,29.849C44.729,29.91 44.468,29.966 44.202,30.017C44.233,29.481 44.25,28.883 44.25,28.252C44.25,27.265 44.208,26.358 44.138,25.646C44.314,25.484 44.487,25.32 44.657,25.152ZM21.343,25.152C21.513,25.32 21.686,25.484 21.862,25.646C21.792,26.358 21.75,27.265 21.75,28.252C21.75,28.883 21.767,29.481 21.798,30.017C21.532,29.966 21.271,29.91 21.018,29.849C20.77,29.325 20.608,28.658 20.579,27.927C20.531,26.746 20.844,25.703 21.343,25.152ZM45.512,24.26C46.252,23.439 46.925,22.554 47.517,21.593C47.517,21.593 49.379,26.839 47.815,28.513C47.425,28.929 46.82,29.26 46.091,29.521C46.202,29.035 46.273,28.51 46.295,27.962C46.354,26.487 46.045,25.154 45.512,24.26ZM19.909,29.521C19.18,29.26 18.575,28.929 18.185,28.513C16.621,26.839 18.483,21.593 18.483,21.593C19.075,22.554 19.748,23.439 20.488,24.26C19.955,25.154 19.646,26.487 19.705,27.962C19.727,28.51 19.798,29.035 19.909,29.521Z" style="fill:rgb(219,151,65);"/>
    </g>
</svg>
