<?xml version="1.0" encoding="UTF-8" standalone="no"?>
<!DOCTYPE svg PUBLIC "-//W3C//DTD SVG 1.1//EN" "http://www.w3.org/Graphics/SVG/1.1/DTD/svg11.dtd">
<svg width="100%" height="100%" viewBox="0 0 66 66" version="1.1" xmlns="http://www.w3.org/2000/svg" xmlns:xlink="http://www.w3.org/1999/xlink" xml:space="preserve" xmlns:serif="http://www.serif.com/" style="fill-rule:evenodd;clip-rule:evenodd;stroke-linejoin:round;stroke-miterlimit:1.41421;">
    <g transform="matrix(1.47601,0,0,1.47601,-15.7084,-5.98678)">
        <path d="M25.117,45.208L19.649,45.061L20.533,40.689L15.361,36.053L18.38,32.736L11.031,22.419L20.381,19.17L19.507,6.179L30.851,12.049L37.022,4.056L41.863,14.624L51.237,12.943L47.233,22.304L54.969,26.383L46.052,36.873C46.129,36.623 46.161,36.357 46.17,36.081C46.212,34.811 45.275,33.294 43.734,33L43.823,28.169C43.823,22.205 38.981,17.363 33.017,17.363C27.053,17.363 22.211,22.205 22.211,28.169L22.201,33C20.891,33.192 19.966,34.469 19.9,35.793C19.827,37.272 20.953,38.858 22.288,38.859L22.3,38.859C22.42,41.398 23.491,43.534 25.117,45.208L25.139,45.209L25.137,45.23C25.886,45.998 26.752,46.668 27.696,47.235L24.905,48.771L25.137,45.23L25.117,45.208ZM22.999,28C22.999,22.48 27.481,17.999 33,17.999C38.519,17.999 43.001,22.48 43.001,28L43.001,33.481C44.38,33.481 45.501,34.601 45.501,35.981C45.501,37.361 44.38,38.481 43.001,38.481L42.989,38.481C42.738,43.778 38.358,48.001 33,48.001C27.642,48.001 23.262,43.778 23.011,38.481L22.999,38.481C21.62,38.481 20.499,37.361 20.499,35.981C20.499,34.601 21.62,33.481 22.999,33.481L22.999,28ZM45.542,37.812L46.426,42.477L43.823,43.272L42.296,47.837L39.507,46.511C41.75,44.632 43.48,42.146 43.627,39.03L43.64,39.03C44.472,39.03 45.046,38.405 45.542,37.812ZM27.412,27.144C26.678,27.144 26.083,26.856 26.083,26.501C26.083,26.145 26.678,25.857 27.412,25.857C27.412,25.857 31.21,26.107 33,25.857C33.827,25.741 34.66,24.875 35.611,24.589C36.806,24.229 38.009,24.271 38.606,24.294C38.608,24.294 38.742,24.283 38.744,24.282C38.96,24.169 39.787,24.308 39.935,24.938C40.044,25.401 39.289,25.584 38.606,25.582C37.917,25.58 36.922,25.491 35.903,25.802C34.876,26.116 33.936,27.014 33,27.144C31.21,27.394 27.412,27.144 27.412,27.144Z" style="fill:white;"/>
    </g>
</svg>
