<?xml version="1.0" encoding="UTF-8" standalone="no"?>
<!DOCTYPE svg PUBLIC "-//W3C//DTD SVG 1.1//EN" "http://www.w3.org/Graphics/SVG/1.1/DTD/svg11.dtd">
<svg width="100%" height="100%" viewBox="0 0 66 66" version="1.1" xmlns="http://www.w3.org/2000/svg" xmlns:xlink="http://www.w3.org/1999/xlink" xml:space="preserve" xmlns:serif="http://www.serif.com/" style="fill-rule:evenodd;clip-rule:evenodd;stroke-linejoin:round;stroke-miterlimit:1.41421;">
    <g transform="matrix(2.1392,0,0,2.43948,-37.5818,-37.4464)">
        <path d="M33,15.35C33.526,15.447 42,16.956 43.878,20.35C45.915,24.033 43.456,37.346 43.456,37.346L39.759,42.208L40.239,33.268L41.621,31.745C41.621,31.745 42.466,26.583 41.815,25.445C41.165,24.308 39.051,24.575 37.719,24.921C36.341,25.279 33.363,27.466 33,27.735M25.662,33.466L26.142,42.405L22.491,37.346C22.491,37.346 20.085,24.033 22.122,20.35C24.061,16.846 33,15.35 33,15.35L33,27.735C33,27.735 29.75,25.303 28.281,24.921C26.949,24.575 24.835,24.308 24.185,25.445C23.534,26.583 24.379,31.745 24.379,31.745L25.662,33.466Z" style="fill:rgb(16,0,47);"/>
    </g>
    <g transform="matrix(2.56625,0,0,2.56625,-51.6864,-47.5853)">
        <path d="M33.006,18.543C33.008,18.585 33.855,28.776 33.863,28.878L33.882,28.866C34.122,28.699 36.613,26.982 37.738,26.808L37.74,26.808C39.473,26.388 40.594,23.088 40.233,21.311C40.569,21.275 42.372,27.787 41.925,27.945C41.872,27.964 38.747,27.05 37.484,27.56C37.459,27.57 37.434,27.581 37.41,27.593C36.162,28.192 33.006,30.423 33.006,30.423L33.006,30.422L33.005,30.423C33.005,30.423 29.85,28.192 28.602,27.593C28.578,27.581 28.553,27.57 28.528,27.56C27.265,27.05 24.139,27.964 24.086,27.945C23.639,27.787 25.442,21.275 25.779,21.311C25.418,23.088 26.538,26.388 28.272,26.808L28.274,26.808C29.399,26.982 31.89,28.699 32.13,28.866L32.148,28.878C32.157,28.776 33.004,18.585 33.005,18.543L33.006,18.551L33.006,18.543Z" style="fill:rgb(104,58,0);"/>
    </g>
</svg>
