<?xml version="1.0" encoding="UTF-8" standalone="no"?>
<!DOCTYPE svg PUBLIC "-//W3C//DTD SVG 1.1//EN" "http://www.w3.org/Graphics/SVG/1.1/DTD/svg11.dtd">
<svg width="100%" height="100%" viewBox="0 0 66 66" version="1.1" xmlns="http://www.w3.org/2000/svg" xmlns:xlink="http://www.w3.org/1999/xlink" xml:space="preserve" xmlns:serif="http://www.serif.com/" style="fill-rule:evenodd;clip-rule:evenodd;stroke-linejoin:round;stroke-miterlimit:1.41421;">
    <g id="Layer17" transform="matrix(0.997353,0,0,0.997353,-4.7146,-1.37751)">
        <g transform="matrix(1.11266,0,0,1.11266,-2.64702,3.3802)">
            <path d="M12.228,16.298L12.228,27.565L6.594,27.565L6.594,6.806L12.228,6.806L12.228,11.599L15.433,11.599L15.433,16.298L12.228,16.298Z" style="fill:white;fill-rule:nonzero;"/>
            <path d="M17.581,1.733L23.214,1.733L23.214,13.622C23.981,12.688 24.759,12.06 25.548,11.739C26.336,11.417 27.26,11.256 28.318,11.256C30.33,11.256 31.85,11.811 32.877,12.921C33.904,14.031 34.418,15.531 34.418,17.419L34.418,27.565L28.785,27.565L28.785,19.504C28.785,18.695 28.722,18.041 28.598,17.543C28.473,17.045 28.266,16.661 27.975,16.392C27.478,15.956 26.876,15.738 26.17,15.738C25.216,15.738 24.485,16.023 23.976,16.594C23.468,17.164 23.214,17.979 23.214,19.037L23.214,27.565L17.581,27.565L17.581,1.733Z" style="fill:white;fill-rule:nonzero;"/>
            <path d="M48.081,17.263C47.894,16.475 47.51,15.842 46.929,15.365C46.348,14.887 45.643,14.649 44.813,14.649C43.941,14.649 43.231,14.877 42.681,15.333C42.131,15.79 41.783,16.433 41.638,17.263L48.081,17.263ZM41.483,20.531C41.483,22.958 42.624,24.172 44.906,24.172C46.13,24.172 47.054,23.674 47.676,22.678L53.122,22.678C52.023,26.33 49.274,28.156 44.875,28.156C43.526,28.156 42.292,27.954 41.171,27.549C40.051,27.144 39.091,26.569 38.293,25.822C37.494,25.075 36.876,24.183 36.441,23.145C36.005,22.108 35.787,20.946 35.787,19.659C35.787,18.332 35.995,17.133 36.41,16.065C36.825,14.996 37.416,14.088 38.184,13.342C38.951,12.595 39.88,12.019 40.969,11.614C42.058,11.21 43.288,11.007 44.657,11.007C46.006,11.007 47.219,11.21 48.298,11.614C49.377,12.019 50.29,12.605 51.037,13.373C51.784,14.14 52.355,15.079 52.749,16.189C53.143,17.299 53.34,18.549 53.34,19.94L53.34,20.531L41.483,20.531Z" style="fill:white;fill-rule:nonzero;"/>
            <path d="M62.055,16.298L62.055,27.565L56.421,27.565L56.421,16.298L54.398,16.298L54.398,11.599L56.421,11.599L56.421,9.202C56.421,7.874 56.546,6.816 56.795,6.028C57.002,5.364 57.334,4.747 57.791,4.176C58.247,3.605 58.781,3.113 59.394,2.698C60.006,2.283 60.664,1.961 61.37,1.733C62.075,1.505 62.77,1.391 63.455,1.391C63.932,1.391 64.373,1.442 64.778,1.546C65.182,1.65 65.592,1.795 66.007,1.982L66.007,6.899C65.634,6.712 65.286,6.572 64.964,6.479C64.643,6.386 64.306,6.339 63.953,6.339C63.725,6.339 63.491,6.375 63.253,6.448C63.014,6.521 62.791,6.671 62.584,6.899C62.376,7.127 62.236,7.454 62.163,7.88C62.091,8.305 62.055,8.881 62.055,9.607L62.055,11.599L66.007,11.599L66.007,16.298L62.055,16.298Z" style="fill:rgb(243,225,77);fill-rule:nonzero;"/>
        </g>
        <g transform="matrix(1.11266,0,0,1.11266,-1.88305,29.4897)">
            <text x="4.011px" y="27.565px" style="font-family:'Futura-Bold', 'Futura', sans-serif;font-weight:700;font-size:31.122px;fill:rgb(243,225,77);">u</text>
            <text x="23.183px" y="27.565px" style="font-family:'Futura-Bold', 'Futura', sans-serif;font-weight:700;font-size:31.122px;fill:rgb(243,225,77);">t</text>
            <text x="33.515px" y="27.565px" style="font-family:'Futura-Bold', 'Futura', sans-serif;font-weight:700;font-size:31.122px;fill:rgb(243,225,77);">u</text>
            <text x="51.504px" y="27.565px" style="font-family:'Futura-Bold', 'Futura', sans-serif;font-weight:700;font-size:31.122px;fill:rgb(243,225,77);">r</text>
        </g>
    </g>
</svg>
